<svg xmlns="http://www.w3.org/2000/svg" version="1.1" xmlns:xlink="http://www.w3.org/1999/xlink" xmlns:svgjs="http://svgjs.dev/svgjs" width="1000" height="750" viewBox="0 0 1000 750"><rect width="1000" height="750" fill="#ffffff"></rect><g transform="matrix(0.834,0,0,0.834,82.49454545454546,58.84505735247194)"><svg viewBox="0 0 396 300" data-background-color="#ffffff" preserveAspectRatio="xMidYMid meet" height="757" width="1000" xmlns="http://www.w3.org/2000/svg" xmlns:xlink="http://www.w3.org/1999/xlink"><g id="tight-bounds" transform="matrix(1,0,0,1,0.2400000000000091,0.23091085006512913)"><svg viewBox="0 0 395.52 223.35014017403708" height="223.35014017403708" width="395.52"><g><svg viewBox="0 0 395.52 223.35014017403708" height="223.35014017403708" width="395.52"><g><svg viewBox="0 0 395.52 223.35014017403708" height="223.35014017403708" width="395.52"><g id="textblocktransform"><svg viewBox="0 0 395.52 223.35014017403708" height="223.35014017403708" width="395.52" id="textblock"><g><rect width="395.52" height="203.4331555744263" fill="none" stroke-width="8.962371322224001" stroke="#0074d9" data-fill-palette-color="none" data-stroke-palette-color="tertiary"></rect><rect width="395.52" height="96.10502272544346" y="203.4331555744263" fill="#0074d9" data-fill-palette-color="tertiary"></rect></g><g><svg viewBox="0 0 395.52 202.4331555744263" height="202.4331555744263" width="395.52"><g transform="matrix(1,0,0,1,23.461705032,23.461705032)"><svg width="348.596589936" viewBox="1.45 -36.23 82.1 36.629999999999995" height="155.5097455104263" data-palette-color="#0074d9"><path d="M23.88-32.52L22.7-30.23Q22.48-29.85 22.23-29.66 21.98-29.48 21.58-29.48L21.58-29.48Q21.15-29.48 20.59-29.9 20.03-30.33 19.16-30.84 18.3-31.35 17.09-31.78 15.88-32.2 14.15-32.2L14.15-32.2Q12.53-32.2 11.28-31.76 10.03-31.33 9.19-30.58 8.35-29.83 7.93-28.81 7.5-27.8 7.5-26.63L7.5-26.63Q7.5-25.13 8.24-24.14 8.97-23.15 10.19-22.45 11.4-21.75 12.94-21.24 14.48-20.73 16.09-20.18 17.7-19.63 19.24-18.94 20.78-18.25 21.99-17.2 23.2-16.15 23.94-14.63 24.68-13.1 24.68-10.88L24.68-10.88Q24.68-8.53 23.88-6.46 23.08-4.4 21.54-2.88 20-1.35 17.76-0.48 15.53 0.4 12.68 0.4L12.68 0.4Q9.2 0.4 6.34-0.86 3.48-2.13 1.45-4.28L1.45-4.28 2.85-6.58Q3.05-6.85 3.34-7.04 3.63-7.23 3.98-7.23L3.98-7.23Q4.5-7.23 5.18-6.66 5.85-6.1 6.86-5.43 7.88-4.75 9.31-4.19 10.75-3.63 12.83-3.63L12.83-3.63Q14.55-3.63 15.9-4.1 17.25-4.58 18.19-5.44 19.13-6.3 19.63-7.5 20.13-8.7 20.13-10.18L20.13-10.18Q20.13-11.8 19.39-12.84 18.65-13.88 17.45-14.58 16.25-15.28 14.71-15.76 13.18-16.25 11.56-16.76 9.95-17.28 8.41-17.95 6.88-18.63 5.68-19.7 4.48-20.78 3.74-22.39 3-24 3-26.38L3-26.38Q3-28.28 3.74-30.05 4.48-31.83 5.88-33.2 7.28-34.58 9.34-35.4 11.4-36.23 14.08-36.23L14.08-36.23Q17.07-36.23 19.55-35.27 22.03-34.33 23.88-32.52L23.88-32.52ZM30.85-35.83L52.92-35.83 52.92-31.88 35.72-31.88 35.72-19.35 50.42-19.35 50.42-15.4 35.72-15.4 35.72 0 30.85 0 30.85-35.83ZM55.5-35.83L83.55-35.83 83.55-31.75 71.97-31.75 71.97 0 67.12 0 67.12-31.75 55.5-31.75 55.5-35.83Z" opacity="1" transform="matrix(1,0,0,1,0,0)" fill="#0074d9" class="wordmark-text-0" data-fill-palette-color="primary" id="text-0"></path></svg></g></svg></g><g transform="matrix(1,0,0,1,75.54432,202.4331555744263)"><svg viewBox="0 0 244.43135999999998 20.916984599610764" height="20.916984599610764" width="244.43135999999998"><g transform="matrix(1,0,0,1,20,3.2)"><svg width="204.43135999999998" viewBox="1.95 -36.04 514.3 36.53" height="14.516984599610764" data-palette-color="#ffffff"><path d="M14.6-15.84L14.6-15.84Q8.57-17.58 5.82-20.1 3.08-22.63 3.08-26.34L3.08-26.34Q3.08-30.54 6.43-33.29 9.79-36.04 15.16-36.04L15.16-36.04Q18.82-36.04 21.69-34.62 24.56-33.2 26.14-30.71 27.71-28.22 27.71-25.27L27.71-25.27 23-25.27Q23-28.49 20.95-30.33 18.9-32.18 15.16-32.18L15.16-32.18Q11.69-32.18 9.75-30.65 7.81-29.13 7.81-26.42L7.81-26.42Q7.81-24.24 9.66-22.74 11.5-21.24 15.93-20 20.36-18.75 22.86-17.25 25.37-15.75 26.57-13.75 27.78-11.74 27.78-9.03L27.78-9.03Q27.78-4.71 24.41-2.11 21.04 0.49 15.41 0.49L15.41 0.49Q11.74 0.49 8.57-0.92 5.4-2.32 3.67-4.76 1.95-7.2 1.95-10.3L1.95-10.3 6.67-10.3Q6.67-7.08 9.05-5.21 11.43-3.34 15.41-3.34L15.41-3.34Q19.12-3.34 21.09-4.86 23.07-6.37 23.07-8.98 23.07-11.6 21.24-13.02 19.41-14.45 14.6-15.84ZM55.22-11.28L59.93-11.28Q59.27-5.64 55.77-2.58 52.27 0.49 46.46 0.49L46.46 0.49Q40.16 0.49 36.36-4.03 32.57-8.54 32.57-16.11L32.57-16.11 32.57-19.53Q32.57-24.49 34.34-28.25 36.11-32.01 39.35-34.02 42.6-36.04 46.87-36.04L46.87-36.04Q52.54-36.04 55.95-32.87 59.37-29.71 59.93-24.12L59.93-24.12 55.22-24.12Q54.61-28.37 52.57-30.27 50.53-32.18 46.87-32.18L46.87-32.18Q42.38-32.18 39.83-28.86 37.28-25.54 37.28-19.41L37.28-19.41 37.28-15.97Q37.28-10.18 39.69-6.76 42.11-3.34 46.46-3.34L46.46-3.34Q50.36-3.34 52.45-5.11 54.54-6.88 55.22-11.28L55.22-11.28ZM87.08 0L79.37-14.38 71.02-14.38 71.02 0 66.3 0 66.3-35.55 78.07-35.55Q84.08-35.55 87.31-32.81 90.55-30.08 90.55-24.85L90.55-24.85Q90.55-21.53 88.75-19.07 86.96-16.6 83.76-15.38L83.76-15.38 92.11-0.29 92.11 0 87.08 0ZM71.02-31.69L71.02-18.21 78.22-18.21Q81.71-18.21 83.77-20.02 85.83-21.83 85.83-24.85L85.83-24.85Q85.83-28.15 83.87-29.91 81.9-31.67 78.19-31.69L78.19-31.69 71.02-31.69ZM117.42-35.55L122.14-35.55 122.14-11.38Q122.11-6.35 118.97-3.15 115.84 0.05 110.47 0.44L110.47 0.44 109.22 0.49Q103.39 0.49 99.92-2.66 96.45-5.81 96.4-11.33L96.4-11.33 96.4-35.55 101.04-35.55 101.04-11.47Q101.04-7.62 103.17-5.48 105.29-3.34 109.22-3.34L109.22-3.34Q113.2-3.34 115.31-5.47 117.42-7.59 117.42-11.45L117.42-11.45 117.42-35.55ZM129.53-35.55L135.59-35.55 147.21-6.54 158.83-35.55 164.91-35.55 164.91 0 160.22 0 160.22-13.84 160.66-28.78 148.99 0 145.4 0 133.75-28.71 134.22-13.84 134.22 0 129.53 0 129.53-35.55ZM192.79-19.53L192.79-15.7 177.87-15.7 177.87 0 173.18 0 173.18-35.55 195.2-35.55 195.2-31.69 177.87-31.69 177.87-19.53 192.79-19.53ZM205.53-35.55L205.53-3.83 222.37-3.83 222.37 0 200.82 0 200.82-35.55 205.53-35.55ZM253.47-18.87L253.47-16.63Q253.47-11.4 251.72-7.51 249.96-3.61 246.74-1.56 243.51 0.49 239.22 0.49L239.22 0.49Q235.02 0.49 231.77-1.57 228.52-3.64 226.73-7.46 224.93-11.28 224.88-16.31L224.88-16.31 224.88-18.87Q224.88-24 226.67-27.93 228.45-31.86 231.71-33.95 234.97-36.04 239.17-36.04L239.17-36.04Q243.44-36.04 246.7-33.97 249.96-31.91 251.72-27.99 253.47-24.07 253.47-18.87L253.47-18.87ZM248.81-16.28L248.81-18.92Q248.81-25.24 246.27-28.63 243.73-32.01 239.17-32.01L239.17-32.01Q234.72-32.01 232.17-28.63 229.62-25.24 229.55-19.24L229.55-19.24 229.55-16.63Q229.55-10.5 232.12-6.99 234.7-3.49 239.22-3.49L239.22-3.49Q243.76-3.49 246.25-6.8 248.74-10.11 248.81-16.28L248.81-16.28ZM262.55-35.55L268.17-11.21 268.85-6.52 269.85-10.74 276.88-35.55 280.84-35.55 287.7-10.74 288.68-6.45 289.43-11.23 294.95-35.55 299.66-35.55 291.04 0 286.77 0 279.45-25.9 278.89-28.61 278.32-25.9 270.73 0 266.46 0 257.87-35.55 262.55-35.55ZM329.76-35.55L329.76-31.69 318.34-31.69 318.34 0 313.67 0 313.67-31.69 302.27-31.69 302.27-35.55 329.76-35.55ZM355.79 0L348.07-14.38 339.72-14.38 339.72 0 335.01 0 335.01-35.55 346.78-35.55Q352.78-35.55 356.02-32.81 359.25-30.08 359.25-24.85L359.25-24.85Q359.25-21.53 357.46-19.07 355.66-16.6 352.47-15.38L352.47-15.38 360.81-0.29 360.81 0 355.79 0ZM339.72-31.69L339.72-18.21 346.92-18.21Q350.41-18.21 352.48-20.02 354.54-21.83 354.54-24.85L354.54-24.85Q354.54-28.15 352.58-29.91 350.61-31.67 346.9-31.69L346.9-31.69 339.72-31.69ZM388.84 0L385.45-9.28 370.55-9.28 367.21 0 362.37 0 375.95-35.55 380.05-35.55 393.65 0 388.84 0ZM378-29.76L371.97-13.13 384.05-13.13 378-29.76ZM419.6-11.28L424.31-11.28Q423.65-5.64 420.15-2.58 416.64 0.49 410.83 0.49L410.83 0.49Q404.54 0.49 400.74-4.03 396.94-8.54 396.94-16.11L396.94-16.11 396.94-19.53Q396.94-24.49 398.71-28.25 400.48-32.01 403.73-34.02 406.98-36.04 411.25-36.04L411.25-36.04Q416.91-36.04 420.33-32.87 423.75-29.71 424.31-24.12L424.31-24.12 419.6-24.12Q418.99-28.37 416.95-30.27 414.91-32.18 411.25-32.18L411.25-32.18Q406.76-32.18 404.21-28.86 401.65-25.54 401.65-19.41L401.65-19.41 401.65-15.97Q401.65-10.18 404.07-6.76 406.49-3.34 410.83-3.34L410.83-3.34Q414.74-3.34 416.83-5.11 418.92-6.88 419.6-11.28L419.6-11.28ZM452.34 0L439.74-16.53 435.39-12.01 435.39 0 430.7 0 430.7-35.55 435.39-35.55 435.39-17.97 451.19-35.55 456.85-35.55 442.86-19.85 457.95 0 452.34 0ZM482.14-20.26L482.14-16.43 466.74-16.43 466.74-3.83 484.63-3.83 484.63 0 462.05 0 462.05-35.55 484.39-35.55 484.39-31.69 466.74-31.69 466.74-20.26 482.14-20.26ZM511.22 0L503.5-14.38 495.15-14.38 495.15 0 490.44 0 490.44-35.55 502.21-35.55Q508.21-35.55 511.45-32.81 514.68-30.08 514.68-24.85L514.68-24.85Q514.68-21.53 512.89-19.07 511.1-16.6 507.9-15.38L507.9-15.38 516.25-0.29 516.25 0 511.22 0ZM495.15-31.69L495.15-18.21 502.36-18.21Q505.85-18.21 507.91-20.02 509.97-21.83 509.97-24.85L509.97-24.85Q509.97-28.15 508.01-29.91 506.04-31.67 502.33-31.69L502.33-31.69 495.15-31.69Z" opacity="1" transform="matrix(1,0,0,1,0,0)" fill="#ffffff" class="slogan-text-1" data-fill-palette-color="quaternary" id="text-1"></path></svg></g></svg></g></svg></g></svg></g><g></g></svg></g><defs></defs></svg><rect width="395.52" height="223.35014017403708" fill="none" stroke="none" visibility="hidden"></rect></g></svg></g></svg>